<?xml version="1.0" standalone="no"?>
<!DOCTYPE svg PUBLIC "-//W3C//DTD SVG 20010904//EN"
 "http://www.w3.org/TR/2001/REC-SVG-20010904/DTD/svg10.dtd">
<svg version="1.0" xmlns="http://www.w3.org/2000/svg"
 width="700.000000pt" height="700.000000pt" viewBox="0 0 700.000000 700.000000"
 preserveAspectRatio="xMidYMid meet">
<metadata>
Created by potrace 1.11, written by Peter Selinger 2001-2013
</metadata>
<g transform="translate(0.000000,700.000000) scale(0.100000,-0.100000)"
fill="#000000" stroke="none">
<path d="M3879 6996 c-2 -2 -40 -6 -84 -10 -586 -45 -1179 -297 -1650 -700
-38 -33 -263 -252 -499 -488 l-429 -427 1447 -1447 1447 -1447 17 24 c49 70
214 241 321 332 82 70 243 175 365 236 108 55 302 131 375 146 9 2 50 11 91
20 41 9 91 19 110 22 19 2 62 8 95 13 60 8 397 6 445 -3 14 -3 48 -8 75 -11
184 -24 507 -141 665 -241 60 -38 112 -66 115 -63 7 9 68 187 95 277 45 151
80 328 106 541 19 157 7 586 -21 725 -3 17 -8 48 -11 70 -9 72 -72 318 -110
430 -296 883 -1006 1584 -1889 1865 -171 54 -384 101 -530 115 -39 4 -74 10
-79 12 -9 6 -462 14 -467 9z"/>
<path d="M783 4851 c-89 -145 -164 -348 -199 -544 -18 -101 -24 -341 -11 -469
16 -161 92 -406 174 -558 98 -181 167 -265 485 -585 l268 -270 -28 -24 c-15
-13 -54 -47 -86 -75 -33 -28 -70 -60 -82 -71 -12 -11 -33 -29 -46 -40 -61 -51
-317 -273 -348 -301 -19 -18 -93 -83 -165 -144 -71 -62 -143 -124 -160 -139
-16 -14 -113 -98 -215 -186 -232 -201 -258 -223 -293 -259 -69 -72 -92 -173
-61 -273 17 -56 31 -71 403 -447 218 -219 410 -404 440 -424 45 -29 65 -35
118 -38 115 -5 176 29 293 168 41 49 86 101 100 116 14 16 79 91 145 167 66
77 122 142 125 145 3 3 59 68 125 145 66 77 125 145 130 151 6 6 33 37 60 69
28 32 57 66 65 74 8 9 57 66 109 126 51 61 105 123 120 140 14 16 57 66 95
110 38 44 73 80 77 80 4 0 135 -126 291 -281 343 -340 401 -386 613 -493 149
-74 330 -130 507 -155 l37 -6 -34 98 c-36 105 -71 234 -80 298 -4 21 -8 50
-11 64 -25 141 -25 434 0 570 10 52 20 108 23 123 2 16 11 47 19 69 8 22 14
49 14 60 0 13 -519 539 -1504 1522 -1225 1224 -1505 1500 -1513 1487z"/>
<path d="M5573 2618 c-328 -26 -640 -184 -868 -438 -273 -305 -385 -734 -299
-1144 79 -377 344 -719 693 -896 188 -95 380 -138 598 -135 151 2 209 9 323
40 372 100 679 350 841 685 96 199 130 342 134 560 7 374 -126 698 -395 960
-94 91 -137 125 -242 189 -154 93 -370 164 -538 177 -130 10 -153 10 -247 2z"/>
</g>
</svg>
